<svg width="48" height="48" viewBox="0 0 48 48" fill="none" xmlns="http://www.w3.org/2000/svg">
    <path d="M23.9999 47.9999C37.2548 47.9999 47.9999 37.2548 47.9999 23.9999C47.9999 10.7451 37.2548 0 23.9999 0C10.7451 0 0 10.7451 0 23.9999C0 37.2548 10.7451 47.9999 23.9999 47.9999Z" fill="#FFC10E"/>
    <path d="M16.7049 19.4911C18.7866 19.4911 20.4741 17.8036 20.4741 15.7219C20.4741 13.6402 18.7866 11.9526 16.7049 11.9526C14.6232 11.9526 12.9356 13.6402 12.9356 15.7219C12.9356 17.8036 14.6232 19.4911 16.7049 19.4911Z" fill="#333333"/>
    <path d="M30.9579 19.4911C33.0395 19.4911 34.7271 17.8036 34.7271 15.7219C34.7271 13.6402 33.0395 11.9526 30.9579 11.9526C28.8762 11.9526 27.1886 13.6402 27.1886 15.7219C27.1886 17.8036 28.8762 19.4911 30.9579 19.4911Z" fill="#333333"/>
    <path d="M34.765 32.0917C28.761 38.2018 19.1007 38.1537 13.1468 32.0008C12.2961 31.1211 10.9575 32.4627 11.8072 33.3404C18.4683 40.2244 29.3939 40.2618 36.1047 33.4313C36.9614 32.5593 35.6222 31.219 34.765 32.0917Z" fill="#333333"/>
</svg>
