<svg width="48" height="48" viewBox="0 0 48 48" fill="none" xmlns="http://www.w3.org/2000/svg">
    <path d="M15.75 41.25L25.9035 31.1715L19.5 29.25L15.75 41.25Z" fill="#9BC9FF"/>
    <path d="M45 7.5L19.5 29.25L25.9035 31.1715L25.905 31.17L25.9035 31.1715L34.5 33.75L45.75 6.75L2.25 22.5L12.75 26.25L45 7.5Z" fill="#9BC9FF"/>
    <path d="M46.293 6.23248C46.1925 6.12717 46.0636 6.05336 45.9219 6.02007C45.7802 5.98677 45.6319 5.99543 45.495 6.04498L1.99501 21.795C1.84971 21.8472 1.72408 21.9431 1.63527 22.0694C1.54647 22.1957 1.49881 22.3463 1.49881 22.5007C1.49881 22.6551 1.54647 22.8058 1.63527 22.9321C1.72408 23.0584 1.84971 23.1542 1.99501 23.2065L12.0975 26.8132L15.015 41.4C15.048 41.5629 15.1342 41.7102 15.2601 41.8188C15.3859 41.9274 15.5443 41.9912 15.7103 42H15.75C15.9405 41.9975 16.1227 41.9221 16.2593 41.7892C16.2653 41.7855 26.1158 32.0175 26.1158 32.0175L34.2848 34.4685C34.4624 34.5217 34.6534 34.5072 34.821 34.4279C34.9886 34.3485 35.1209 34.2099 35.1923 34.0387L46.4423 7.03873C46.4983 6.90436 46.5141 6.75658 46.4876 6.61341C46.4611 6.47024 46.3935 6.33788 46.293 6.23248ZM39.5888 9.77848L12.675 25.425L4.46626 22.4955L39.5888 9.77848ZM15.9098 38.2245L13.5908 26.6287L38.175 12.336L19.0133 28.6792C18.9197 28.7828 18.8423 28.8998 18.7838 29.0265L15.9098 38.2245ZM17.3678 38.5867L19.9928 30.1815L24.4785 31.527L17.3678 38.5867ZM34.068 32.8372L21.0345 28.9275L43.7813 9.52498L34.068 32.8372Z" fill="#1E81CE"/>
</svg>
