<svg width="27" height="27" viewBox="0 0 27 27" fill="none" xmlns="http://www.w3.org/2000/svg">
    <path d="M13.5009 7.22401C11.5101 7.22401 9.90073 5.60755 9.90073 3.61141C9.90073 1.61705 11.5101 0 13.5009 0C15.487 0 17.0981 1.61646 17.0981 3.61141C17.0981 5.60696 15.4864 7.22401 13.5009 7.22401Z" fill="#2F8AD3"/>
    <path d="M13.5015 17.1117C11.5107 17.1117 9.90073 15.4952 9.90073 13.4991C9.90073 11.5053 11.5101 9.88647 13.5009 9.88647C15.487 9.88647 17.0981 11.5047 17.0993 13.4991C17.0981 15.4964 15.4858 17.1117 13.5015 17.1117Z" fill="#2F8AD3"/>
    <path d="M13.5015 27C11.5107 27 9.90073 25.3835 9.90073 23.3874C9.90073 21.3913 11.5101 19.7754 13.5009 19.7754C15.487 19.7742 17.0981 21.3918 17.0981 23.3874C17.0981 25.3829 15.4858 27 13.5015 27Z" fill="#2F8AD3"/>
</svg>
