<svg width="48" height="48" viewBox="0 0 48 48" fill="none" xmlns="http://www.w3.org/2000/svg">
    <path d="M42.583 9.067L38.932 5.417C38.377 4.861 37.473 4.861 36.917 5.417L35.199 7.137L40.863 12.801L42.583 11.083C43.139 10.526 43.139 9.625 42.583 9.067Z" fill="#E57373"/>
    <path d="M38.0322 15.6317L12.5719 41.0929L6.90716 35.4284L32.3675 9.96712L38.0322 15.6317Z" fill="#FF9800"/>
    <path d="M32.3626 9.96802L35.1943 7.13436L40.8623 12.7984L38.0306 15.6321L32.3626 9.96802Z" fill="#B0BEC5"/>
    <path d="M6.905 35.43L5 43L12.571 41.094L6.905 35.43Z" fill="#FFC107"/>
    <path d="M5.965 39.172L5 43L8.827 42.035L5.965 39.172Z" fill="#37474F"/>
</svg>
