<svg width="48" height="48" viewBox="0 0 48 48" fill="none" xmlns="http://www.w3.org/2000/svg">
    <path d="M40 41H8C5.8 41 4 39.2 4 37V11C4 8.8 5.8 7 8 7H40C42.2 7 44 8.8 44 11V37C44 39.2 42.2 41 40 41Z" fill="#F57C00"/>
    <path d="M35 13C34.2044 13 33.4413 13.3161 32.8787 13.8787C32.3161 14.4413 32 15.2044 32 16C32 16.7956 32.3161 17.5587 32.8787 18.1213C33.4413 18.6839 34.2044 19 35 19C35.7956 19 36.5587 18.6839 37.1213 18.1213C37.6839 17.5587 38 16.7956 38 16C38 15.2044 37.6839 14.4413 37.1213 13.8787C36.5587 13.3161 35.7956 13 35 13Z" fill="#FFF9C4"/>
    <path d="M20 16L9 32H31L20 16Z" fill="#942A09"/>
    <path d="M31 22L23 32H39L31 22Z" fill="#BF360C"/>
</svg>
