<svg width="48" height="48" viewBox="0 0 48 48" fill="none" xmlns="http://www.w3.org/2000/svg">
    <path d="M24 4C18.5 4 14 8.5 14 14V18H18V14C18 10.7 20.7 8 24 8C27.3 8 30 10.7 30 14V18H34V14C34 8.5 29.5 4 24 4Z" fill="#424242"/>
    <path d="M36 44H12C9.8 44 8 42.2 8 40V22C8 19.8 9.8 18 12 18H36C38.2 18 40 19.8 40 22V40C40 42.2 38.2 44 36 44Z" fill="#FB8C00"/>
    <path d="M24 28C23.2044 28 22.4413 28.3161 21.8787 28.8787C21.3161 29.4413 21 30.2044 21 31C21 31.7956 21.3161 32.5587 21.8787 33.1213C22.4413 33.6839 23.2044 34 24 34C24.7956 34 25.5587 33.6839 26.1213 33.1213C26.6839 32.5587 27 31.7956 27 31C27 30.2044 26.6839 29.4413 26.1213 28.8787C25.5587 28.3161 24.7956 28 24 28Z" fill="#C76E00"/>
</svg>
