<svg width="48" height="48" viewBox="0 0 48 48" fill="none" xmlns="http://www.w3.org/2000/svg">
    <path d="M47.0439 37.8879C47.0439 32.082 42.4733 27.3442 36.734 27.075C40.5091 29.2012 43.0593 33.2464 43.0593 37.8879H47.0439Z" fill="#29ABE2"/>
    <path d="M32.0898 25.3289C32.1837 25.4245 32.281 25.5168 32.3813 25.6057C33.9217 25.82 35.3712 26.3169 36.6763 27.0428C39.6578 26.8091 42.0048 24.3176 42.0048 21.2762C42.0048 18.1312 39.4951 15.5739 36.3694 15.4936C36.9512 16.4797 37.2863 17.6288 37.2863 18.8567C37.2863 22.0258 35.062 24.6738 32.0898 25.3289Z" fill="#29ABE2"/>
    <path d="M30.517 20.2933C30.7489 19.7915 30.9248 19.2587 31.0361 18.7025C30.7901 19.1967 30.6132 19.7312 30.517 20.2933Z" fill="#29ABE2"/>
    <path d="M4.94074 37.8879C4.94074 33.2464 7.49083 29.2012 11.2661 27.075C5.52677 27.3442 0.956177 32.082 0.956177 37.8879H4.94074Z" fill="#29ABE2"/>
    <path d="M15.9102 25.3298C12.9381 24.6748 10.7137 22.0267 10.7137 18.8577C10.7137 17.6298 11.0488 16.4808 11.6306 15.4946C8.50493 15.5749 5.99524 18.132 5.99524 21.2772C5.99524 24.3186 8.34227 26.8102 11.3237 27.0438C12.6288 26.3179 14.0784 25.821 15.6187 25.6067C15.719 25.5177 15.8163 25.4254 15.9102 25.3298Z" fill="#29ABE2"/>
    <path d="M16.9639 18.7024C17.0751 19.2587 17.2511 19.7915 17.483 20.2932C17.3868 19.7312 17.2099 19.1967 16.9639 18.7024Z" fill="#29ABE2"/>
    <path d="M17.483 20.2933C17.2511 19.7916 17.0752 19.2587 16.9639 18.7025C16.8724 18.2452 16.8243 17.7721 16.8243 17.2878C16.8243 15.39 17.5624 13.6655 18.7654 12.3822C18.3068 12.2819 17.8312 12.2275 17.3427 12.2275C14.9094 12.2275 12.7836 13.5394 11.6305 15.4936C11.0487 16.4797 10.7136 17.6289 10.7136 18.8567C10.7136 22.0257 12.9379 24.6739 15.9101 25.3288C16.3717 25.4305 16.8506 25.4859 17.3427 25.4859C18.9187 25.4859 20.3655 24.9348 21.5032 24.0163C19.7219 23.3551 18.2747 22.0067 17.483 20.2933Z" fill="#BDCCD4"/>
    <path d="M11.3236 27.0428C11.3044 27.0535 11.2851 27.0642 11.2659 27.0751C7.4908 29.2012 4.94061 33.2464 4.94061 37.8878H10.5755C10.5755 33.786 12.4164 30.1155 15.3157 27.6532C16.3221 26.7986 17.4552 26.0885 18.6843 25.5578C18.2436 25.5104 17.7961 25.4857 17.3428 25.4857C16.7576 25.4857 16.1822 25.5273 15.6186 25.6057C14.0783 25.82 12.6287 26.317 11.3236 27.0428Z" fill="#BDCCD4"/>
    <path d="M36.7339 27.0751C36.7147 27.0643 36.6956 27.0536 36.6763 27.0428C35.3712 26.3169 33.9216 25.82 32.3813 25.6057C31.8178 25.5274 31.2423 25.4858 30.6571 25.4858C30.2039 25.4858 29.7563 25.5105 29.3157 25.5579C30.5447 26.0886 31.6777 26.7986 32.6842 27.6533C35.5835 30.1156 37.4245 33.7862 37.4245 37.8879H43.0593C43.0592 33.2465 40.509 29.2013 36.7339 27.0751Z" fill="#BDCCD4"/>
    <path d="M37.2863 18.8577C37.2863 17.6298 36.9511 16.4807 36.3693 15.4946C35.2163 13.5404 33.0904 12.2285 30.6571 12.2285C30.1685 12.2285 29.6929 12.2829 29.2345 12.3832C30.4376 13.6665 31.1756 15.391 31.1756 17.2888C31.1756 17.7731 31.1275 18.246 31.036 18.7034C30.9247 19.2598 30.7487 19.7925 30.5169 20.2943C29.7252 22.0077 28.2781 23.3561 26.4967 24.0174C27.6344 24.9358 29.081 25.4869 30.6571 25.4869C31.1493 25.4869 31.6282 25.4316 32.0897 25.3299C35.062 24.6747 37.2863 22.0267 37.2863 18.8577Z" fill="#BDCCD4"/>
    <path d="M29.3166 25.5579C27.6864 24.8542 25.8894 24.4635 24.0009 24.4635C22.1124 24.4635 20.3154 24.8542 18.6852 25.5579C13.9153 27.6172 10.5765 32.3623 10.5765 37.8879H18.2562H29.7458H37.4255C37.4254 32.3622 34.0865 27.6172 29.3166 25.5579Z" fill="#29ABE2"/>
    <path d="M31.1756 17.2878C31.1756 15.39 30.4375 13.6655 29.2346 12.3822C27.9253 10.9858 26.0652 10.1121 23.9999 10.1121C21.9346 10.1121 20.0745 10.9857 18.7653 12.3822C17.5622 13.6655 16.8242 15.39 16.8242 17.2878C16.8242 20.3726 18.7712 23.0022 21.5031 24.0164C22.2807 24.3051 23.1218 24.4635 23.9999 24.4635C24.8781 24.4635 25.719 24.3052 26.4968 24.0164C29.2287 23.0021 31.1756 20.3726 31.1756 17.2878Z" fill="#29ABE2"/>
    <path d="M40.1189 26.7708C41.8371 25.5475 42.961 23.5413 42.961 21.2761C42.961 17.7916 40.3042 14.9161 36.9099 14.5688C35.5412 12.5791 33.2494 11.2713 30.6572 11.2713C30.2815 11.2713 29.9127 11.3004 29.5517 11.3537C28.0971 9.99204 26.1448 9.15588 23.9999 9.15588C21.8552 9.15588 19.903 9.99185 18.4486 11.3534C18.0874 11.3002 17.7184 11.2714 17.3427 11.2714C14.7504 11.2714 12.4586 12.5791 11.09 14.5689C7.69575 14.9163 5.03888 17.7918 5.03888 21.2762C5.03888 23.5413 6.16275 25.5475 7.881 26.7709C3.29597 28.3842 0 32.7581 0 37.8878C0 38.4159 0.428063 38.844 0.956156 38.844H4.94072H5.06766H10.4223V38.8306C10.4722 38.8386 10.5232 38.844 10.5756 38.844H37.4245C37.4439 38.844 37.463 38.8423 37.4822 38.8411V38.844H42.7412H43.0594H47.0438C47.5719 38.844 48 38.4159 48 37.8878C48 32.7581 44.704 28.3842 40.1189 26.7708ZM41.0487 21.2763C41.0487 23.7211 39.2225 25.7462 36.8626 26.0622C36.2108 25.7188 35.5279 25.4273 34.8185 25.1942C36.879 23.8366 38.2426 21.5034 38.2426 18.8568C38.2426 18.1325 38.1384 17.4326 37.948 16.7688C39.7593 17.4657 41.0487 19.2223 41.0487 21.2763ZM36.3303 18.8566C36.3303 21.9847 33.7854 24.5296 30.6573 24.5296C29.8773 24.5296 29.134 24.3707 28.4572 24.0842C30.6683 22.6292 32.132 20.1268 32.132 17.2876C32.132 15.7966 31.7269 14.3993 31.0236 13.1967C33.9813 13.3864 36.3303 15.8517 36.3303 18.8566ZM30.2195 17.2878C30.2195 20.7171 27.4295 23.5072 24 23.5072C20.5705 23.5072 17.7805 20.7172 17.7805 17.2878C17.7805 13.8583 20.5705 11.0683 24 11.0683C27.4295 11.0683 30.2195 13.8583 30.2195 17.2878ZM16.9766 13.1968C16.2733 14.3995 15.8682 15.7969 15.8682 17.2877C15.8682 20.1267 17.3317 22.6292 19.5429 24.0842C18.8662 24.3707 18.1229 24.5296 17.3429 24.5296C14.2147 24.5296 11.6699 21.9847 11.6699 18.8566C11.6697 15.8517 14.0187 13.3864 16.9766 13.1968ZM6.95128 21.2763C6.95128 19.222 8.24062 17.4642 10.0523 16.7674C9.86166 17.4317 9.75741 18.1321 9.75741 18.8568C9.75741 21.5035 11.121 23.8366 13.1815 25.1942C12.4721 25.4273 11.7892 25.7189 11.1374 26.0622C8.77763 25.7462 6.95128 23.7211 6.95128 21.2763ZM7.28991 29.1019C5.42972 31.2273 4.23141 33.9452 4.01916 36.9317H1.95825C2.28834 33.5141 4.36903 30.6011 7.28991 29.1019ZM9.65194 36.9317H5.93644C6.35841 31.8542 10.1093 27.7076 14.9947 26.6849C11.952 29.1356 9.92475 32.7976 9.65194 36.9317ZM11.568 36.9317C12.0581 30.502 17.4468 25.4196 24 25.4196C30.5532 25.4196 35.9419 30.502 36.432 36.9317H11.568ZM38.3481 36.9317C38.0752 32.7976 36.048 29.1356 33.0053 26.6849C37.8907 27.7076 41.6416 31.8542 42.0636 36.9317H38.3481ZM43.9809 36.9317C43.7688 33.9461 42.571 31.229 40.712 29.104C43.6316 30.6034 45.7118 33.5149 46.0417 36.9317H43.9809Z" fill="black"/>
    <path d="M18.1553 27.8537C15.5357 29.4187 13.6261 32.0107 12.9162 34.9651C12.7928 35.4786 13.1091 35.9948 13.6226 36.1182C13.6976 36.1363 13.7727 36.1449 13.8468 36.1449C14.2787 36.1449 14.6704 35.8503 14.7758 35.4119C15.3662 32.9546 16.9556 30.7982 19.1362 29.4954C19.5895 29.2246 19.7375 28.6375 19.4667 28.1843C19.1957 27.7307 18.6086 27.5829 18.1553 27.8537Z" fill="black"/>
    <path d="M23.9866 26.2488C23.0953 26.2488 22.2077 26.3523 21.3482 26.5563C20.8343 26.6782 20.5167 27.1937 20.6387 27.7074C20.743 28.147 21.1352 28.443 21.5682 28.443C21.6413 28.443 21.7157 28.4346 21.7898 28.4169C22.5048 28.2473 23.2439 28.1612 23.9866 28.1612C24.5147 28.1612 24.9427 27.7331 24.9427 27.205C24.9427 26.6768 24.5147 26.2488 23.9866 26.2488Z" fill="black"/>
</svg>
