<svg width="48" height="48" viewBox="0 0 48 48" fill="none" xmlns="http://www.w3.org/2000/svg">
    <path d="M44.48 4.15994H3.51996V43.8399H44.48V4.15994Z" fill="#64798A"/>
    <path d="M12.48 48H6.08C4.66611 48 3.51996 46.8538 3.51996 45.44V2.56004C3.51996 1.14615 4.66611 0 6.08 0H12.48V48Z" fill="#3A556A"/>
    <path d="M41.92 48H35.52V0H41.92C43.3339 0 44.48 1.14615 44.48 2.56004V45.44C44.4799 46.8538 43.3338 48 41.92 48Z" fill="#3A556A"/>
    <path d="M37.4399 43.4962V40.9362C37.4399 40.5827 37.7265 40.2961 38.08 40.2961H41.9199C42.2733 40.2961 42.5599 40.5826 42.5599 40.9362V43.4962C42.5599 43.8496 42.2734 44.1362 41.9199 44.1362H38.08C37.7265 44.1362 37.4399 43.8496 37.4399 43.4962Z" fill="#D5D6DB"/>
    <path d="M37.4399 36.2097V33.6497C37.4399 33.2963 37.7265 33.0097 38.08 33.0097H41.9199C42.2733 33.0097 42.5599 33.2963 42.5599 33.6497V36.2098C42.5599 36.5632 42.2734 36.8498 41.9199 36.8498H38.08C37.7265 36.8497 37.4399 36.5632 37.4399 36.2097Z" fill="#D5D6DB"/>
    <path d="M37.4399 28.9232V26.3632C37.4399 26.0098 37.7265 25.7232 38.08 25.7232H41.9199C42.2733 25.7232 42.5599 26.0097 42.5599 26.3632V28.9232C42.5599 29.2766 42.2734 29.5632 41.9199 29.5632H38.08C37.7265 29.5632 37.4399 29.2766 37.4399 28.9232Z" fill="#D5D6DB"/>
    <path d="M37.4399 21.6367V19.0767C37.4399 18.7233 37.7265 18.4367 38.08 18.4367H41.9199C42.2733 18.4367 42.5599 18.7233 42.5599 19.0767V21.6367C42.5599 21.9901 42.2734 22.2767 41.9199 22.2767H38.08C37.7265 22.2767 37.4399 21.9902 37.4399 21.6367Z" fill="#D5D6DB"/>
    <path d="M37.4399 14.3504V11.7903C37.4399 11.4369 37.7265 11.1503 38.08 11.1503H41.9199C42.2733 11.1503 42.5599 11.4368 42.5599 11.7903V14.3504C42.5599 14.7038 42.2734 14.9904 41.9199 14.9904H38.08C37.7265 14.9904 37.4399 14.7038 37.4399 14.3504Z" fill="#D5D6DB"/>
    <path d="M37.4399 7.06381V4.50387C37.4399 4.15045 37.7265 3.86386 38.08 3.86386H41.9199C42.2733 3.86386 42.5599 4.15035 42.5599 4.50387V7.06391C42.5599 7.41733 42.2734 7.70392 41.9199 7.70392H38.08C37.7265 7.70382 37.4399 7.41733 37.4399 7.06381Z" fill="#D5D6DB"/>
    <path d="M5.44 43.4962V40.9362C5.44 40.5827 5.72649 40.2961 6.08001 40.2961H9.91996C10.2734 40.2961 10.56 40.5826 10.56 40.9362V43.4962C10.56 43.8496 10.2735 44.1362 9.91996 44.1362H6.08001C5.72659 44.1362 5.44 43.8496 5.44 43.4962Z" fill="#D5D6DB"/>
    <path d="M5.44 36.2097V33.6497C5.44 33.2963 5.72649 33.0097 6.08001 33.0097H9.91996C10.2734 33.0097 10.56 33.2963 10.56 33.6497V36.2098C10.56 36.5632 10.2735 36.8498 9.91996 36.8498H6.08001C5.72659 36.8497 5.44 36.5632 5.44 36.2097Z" fill="#D5D6DB"/>
    <path d="M5.44 28.9232V26.3632C5.44 26.0098 5.72649 25.7232 6.08001 25.7232H9.91996C10.2734 25.7232 10.56 26.0097 10.56 26.3632V28.9232C10.56 29.2766 10.2735 29.5632 9.91996 29.5632H6.08001C5.72659 29.5632 5.44 29.2766 5.44 28.9232Z" fill="#D5D6DB"/>
    <path d="M5.44 21.6367V19.0767C5.44 18.7233 5.72649 18.4367 6.08001 18.4367H9.91996C10.2734 18.4367 10.56 18.7233 10.56 19.0767V21.6367C10.56 21.9901 10.2735 22.2767 9.91996 22.2767H6.08001C5.72659 22.2767 5.44 21.9902 5.44 21.6367Z" fill="#D5D6DB"/>
    <path d="M5.44 14.3504V11.7903C5.44 11.4369 5.72649 11.1503 6.08001 11.1503H9.91996C10.2734 11.1503 10.56 11.4368 10.56 11.7903V14.3504C10.56 14.7038 10.2735 14.9904 9.91996 14.9904H6.08001C5.72659 14.9904 5.44 14.7038 5.44 14.3504Z" fill="#D5D6DB"/>
    <path d="M5.44 7.06381V4.50387C5.44 4.15045 5.72649 3.86386 6.08001 3.86386H9.91996C10.2734 3.86386 10.56 4.15035 10.56 4.50387V7.06391C10.56 7.41733 10.2735 7.70392 9.91996 7.70392H6.08001C5.72659 7.70382 5.44 7.41733 5.44 7.06381Z" fill="#D5D6DB"/>
    <path d="M23.9999 32.96C28.9484 32.96 32.96 28.9484 32.96 23.9999C32.96 19.0515 28.9484 15.0399 23.9999 15.0399C19.0515 15.0399 15.0399 19.0515 15.0399 23.9999C15.0399 28.9484 19.0515 32.96 23.9999 32.96Z" fill="#E1E6E9"/>
    <path d="M29.5619 23.0505L22.2201 18.3262C21.4688 17.8427 20.4801 18.3821 20.4801 19.2756L20.48 28.7242C20.48 29.6178 21.4687 30.1572 22.22 29.6737L29.5618 24.9495C30.2526 24.5051 30.2526 23.495 29.5619 23.0505Z" fill="#27A2DB"/>
</svg>
