<svg width="48" height="48" viewBox="0 0 48 48" fill="none" xmlns="http://www.w3.org/2000/svg">
    <path d="M12 17C9.34784 17 6.8043 18.0536 4.92893 19.9289C3.05357 21.8043 2 24.3478 2 27C2 29.6522 3.05357 32.1957 4.92893 34.0711C6.8043 35.9464 9.34784 37 12 37C14.6522 37 17.1957 35.9464 19.0711 34.0711C20.9464 32.1957 22 29.6522 22 27C22 24.3478 20.9464 21.8043 19.0711 19.9289C17.1957 18.0536 14.6522 17 12 17Z" fill="#B3E5FC"/>
    <path d="M24 9C20.8174 9 17.7652 10.2643 15.5147 12.5147C13.2643 14.7652 12 17.8174 12 21C12 24.1826 13.2643 27.2348 15.5147 29.4853C17.7652 31.7357 20.8174 33 24 33C27.1826 33 30.2348 31.7357 32.4853 29.4853C34.7357 27.2348 36 24.1826 36 21C36 17.8174 34.7357 14.7652 32.4853 12.5147C30.2348 10.2643 27.1826 9 24 9Z" fill="#B3E5FC"/>
    <path d="M37.5 20C36.3838 20 35.2785 20.2199 34.2472 20.647C33.2159 21.0742 32.2789 21.7003 31.4896 22.4896C30.7003 23.2789 30.0742 24.2159 29.647 25.2472C29.2199 26.2785 29 27.3838 29 28.5C29 29.6162 29.2199 30.7215 29.647 31.7528C30.0742 32.7841 30.7003 33.7211 31.4896 34.5104C32.2789 35.2997 33.2159 35.9258 34.2472 36.353C35.2785 36.7801 36.3838 37 37.5 37C38.6162 37 39.7215 36.7801 40.7528 36.353C41.7841 35.9258 42.7211 35.2997 43.5104 34.5104C44.2997 33.7211 44.9258 32.7841 45.353 31.7528C45.7801 30.7215 46 29.6162 46 28.5C46 27.3838 45.7801 26.2785 45.353 25.2472C44.9258 24.2159 44.2997 23.2789 43.5104 22.4896C42.7211 21.7003 41.7841 21.0742 40.7528 20.647C39.7215 20.2199 38.6162 20 37.5 20Z" fill="#B3E5FC"/>
    <path d="M12 27H37V37H12V27Z" fill="#B3E5FC"/>
    <path d="M22 22H26V32H22V22Z" fill="#3F51B5"/>
    <path d="M24 17L18 24H30L24 17Z" fill="#3F51B5"/>
</svg>
